<svg xmlns="http://www.w3.org/2000/svg" viewBox="0 0 125.93 125.93"><defs><style>.cls-1{fill:#545f66;}.cls-2{fill:#38b171;}.cls-3{fill:#fff;}</style></defs><title>squre_logo_black</title><g id="レイヤー_2" data-name="レイヤー 2"><g id="レイヤー_1-2" data-name="レイヤー 1"><rect class="cls-1" width="125.93" height="125.93"/><circle class="cls-2" cx="90.19" cy="76.39" r="6.25"/><path class="cls-3" d="M87.9,43.38H78.34a1.27,1.27,0,0,0-1.2.92l-6,19.86-6.62-20a1.29,1.29,0,0,0-1.1-.83H55.36a1.19,1.19,0,0,0-1.1.83l-6.62,20-6-19.86a1.27,1.27,0,0,0-1.2-.92H30.53a1,1,0,0,0-.83.46,1.13,1.13,0,0,0-.18.92L41.84,81.81a1.29,1.29,0,0,0,1.1.83h8.18a1.16,1.16,0,0,0,1.1-.83l7-20,7,20a1.29,1.29,0,0,0,1.1.83h8.18a1.19,1.19,0,0,0,1.1-.83L88.91,44.76a.88.88,0,0,0-.18-.92A1,1,0,0,0,87.9,43.38Z"/></g></g></svg>